# xmcd
#
# Track frame offsets:
#	182
#	7635
#	22570
#	34832
#	48035
#	66487
#	88467
#	118452
#	144405
#	160160
#	179885
#	205455
#	225112
#	247085
#	265237
#	289322
#	308002
#	325692
#
# Disc length: 4580 seconds
#
# Revision: 3
# Processed by: cddbd v1.5.1PL0 Copyright (c) Steve Scherf et al.
# Submitted via: audiograbber 1.83.01
#
DISCID=fa11e212
DTITLE=Bobby "Blye" Bland, Denise LaSalle, Johnnie Taylor, Mosley and Johnson - B
DTITLE=lues From The Montreux Jazz Festival
DYEAR=1991
DGENRE=Blues
TTITLE0=Intro and Stormy Monday
TTITLE1=That's The Way Love Is
TTITLE2=Further On Up The Road - I Pity The Fool
TTITLE3=Share Your Love
TTITLE4=I've Got The Right To Know
TTITLE5=St. James Infirmary - I'll Take Care Of You
TTITLE6=Lady In The Street - Down Home Blues - The Blues Is Alright
TTITLE7=Make Me Yours - Precious, Precious - Trapped
TTITLE8=Don't Mess With My Tu-Tu
TTITLE9=Don't Cry No More
TTITLE10=Who's Making Love - Blue Bird
TTITLE11=Cheaper To Keep Her
TTITLE12=I Believe In You
TTITLE13=I Found A Love
TTITLE14=Hold On I'm Coming - Knock On Wood
TTITLE15=Let's Fall In Love
TTITLE16=When Something Is Wrong With My Baby
TTITLE17=Soul Man
EXTD=
EXTT0=
EXTT1=
EXTT2=
EXTT3=
EXTT4=
EXTT5=
EXTT6=
EXTT7=
EXTT8=
EXTT9=
EXTT10=
EXTT11=
EXTT12=
EXTT13=
EXTT14=
EXTT15=
EXTT16=
EXTT17=
PLAYORDER=
